<svg width="118" height="40" viewBox="0 0 118 40" fill="none" xmlns="http://www.w3.org/2000/svg">
<path d="M6.912 32V13.728H0.288V9.6H18.368V13.728H11.744V32H6.912ZM20.9958 32L15.7478 15.872H20.2278L22.9798 25.824L25.8278 15.872H29.8918L32.7398 25.824L35.4598 15.872H39.9398L34.6918 32H30.7878L27.8758 21.952L24.8998 32H20.9958ZM41.6528 32V15.872H46.1008V32H41.6528ZM41.5248 8.864H46.2608V13.568H41.5248V8.864ZM49.4265 32V15.872H53.8745V18.112C54.7705 16.544 56.5625 15.616 58.8025 15.616C62.4185 15.616 64.7865 18.24 64.7865 21.952V32H60.3065V22.944C60.3065 20.992 59.0585 19.584 57.2025 19.584C55.2505 19.584 53.8745 21.088 53.8745 23.168V32H49.4265ZM75.311 32.256C69.807 32.256 67.023 27.968 67.023 23.904C67.023 19.84 69.519 15.616 74.991 15.616C80.687 15.616 82.927 19.84 82.927 23.488C82.927 24.096 82.895 24.576 82.863 24.928H71.279C71.631 27.2 73.039 28.608 75.311 28.608C77.103 28.608 78.287 27.904 78.639 26.528H82.991C82.351 30.016 79.279 32.256 75.311 32.256ZM71.375 22.08H78.511C78.351 20.288 77.135 18.88 74.991 18.88C73.071 18.88 71.823 20 71.375 22.08Z" fill="url(#paint0_linear_32_170)"/>
<path d="M90.949 18V8.9H94.459C96.136 8.9 97.319 9.745 97.319 11.149C97.319 12.098 96.799 12.722 96.201 13.034C97.085 13.359 97.761 14.087 97.761 15.322C97.761 16.999 96.5 18 94.589 18H90.949ZM94.42 16.505C95.577 16.505 96.123 16.063 96.123 15.218C96.123 14.386 95.577 13.918 94.42 13.918H92.639V16.505H94.42ZM94.342 12.462C95.252 12.462 95.707 12.072 95.707 11.37C95.707 10.668 95.252 10.278 94.316 10.278H92.639V12.462H94.342ZM101.828 18.104C99.6829 18.104 98.4999 16.414 98.4999 14.698C98.4999 12.969 99.5659 11.344 101.711 11.344C103.895 11.344 104.883 12.943 104.883 14.503C104.883 14.724 104.87 14.932 104.857 15.062H100.047C100.177 16.102 100.827 16.778 101.828 16.778C102.647 16.778 103.193 16.44 103.349 15.816H104.909C104.675 17.207 103.453 18.104 101.828 18.104ZM100.086 13.97H103.297C103.232 13.138 102.66 12.553 101.711 12.553C100.827 12.553 100.268 13.047 100.086 13.97ZM108.885 18C107.455 18 106.519 17.168 106.519 15.712V12.787H105.232V11.448H106.519V9.472H108.118V11.448H109.938V12.787H108.118V15.647C108.118 16.31 108.469 16.648 109.067 16.648H109.938V18H108.885ZM112.855 18.104C111.555 18.104 110.671 17.272 110.671 16.128C110.671 14.867 111.646 14.048 113.18 14.048H114.285C114.649 14.048 114.805 13.918 114.805 13.632C114.805 12.995 114.324 12.553 113.479 12.553C112.634 12.553 112.127 13.073 112.101 13.658H110.671C110.749 12.358 111.854 11.344 113.557 11.344C115.221 11.344 116.391 12.319 116.391 13.775V18H114.805V17.025C114.545 17.675 113.778 18.104 112.855 18.104ZM113.232 16.921C114.22 16.921 114.805 16.219 114.805 15.244V15.14H113.388C112.673 15.14 112.218 15.491 112.218 16.063C112.218 16.583 112.621 16.921 113.232 16.921Z" fill="white" fill-opacity="0.25"/>
<defs>
<linearGradient id="paint0_linear_32_170" x1="0" y1="20" x2="84" y2="20" gradientUnits="userSpaceOnUse">
<stop stop-color="white" stop-opacity="0.85"/>
<stop offset="1" stop-color="white" stop-opacity="0.8"/>
</linearGradient>
</defs>
</svg>
