<svg width="395" height="100" viewBox="0 0 395 100" fill="none" xmlns="http://www.w3.org/2000/svg">
<path d="M27.7729 96.4001V20.2667H0V3.06667H75.8051V20.2667H48.0322V96.4001H27.7729ZM86.8229 96.4001L64.8192 29.2H83.6029L95.1414 70.6667L107.082 29.2H124.122L136.063 70.6667L147.467 29.2H166.251L144.247 96.4001H127.879L115.669 54.5334L103.191 96.4001H86.8229ZM173.433 96.4001V29.2H192.082V96.4001H173.433ZM172.896 0H192.753V19.6H172.896V0ZM206.026 96.4001V29.2H224.676V38.5334C228.432 32 235.946 28.1334 245.338 28.1334C260.499 28.1334 270.427 39.0667 270.427 54.5334V96.4001H251.644V58.6667C251.644 50.5334 246.411 44.6667 238.629 44.6667C230.445 44.6667 224.676 50.9334 224.676 59.6001V96.4001H206.026ZM314.554 97.4667C291.477 97.4667 279.804 79.6001 279.804 62.6667C279.804 45.7334 290.27 28.1334 313.212 28.1334C337.094 28.1334 346.486 45.7334 346.486 60.9334C346.486 63.4667 346.352 65.4667 346.218 66.9334H297.649C299.125 76.4001 305.028 82.2667 314.554 82.2667C322.068 82.2667 327.032 79.3334 328.508 73.6001H346.755C344.071 88.1334 331.191 97.4667 314.554 97.4667ZM298.051 55.0667H327.971C327.3 47.6001 322.202 41.7334 313.212 41.7334C305.162 41.7334 299.93 46.4001 298.051 55.0667Z" fill="url(#paint0_linear_32_187)"/>
<path d="M359 27.8531V15H363.967C366.34 15 368.013 16.1935 368.013 18.1766C368.013 19.5169 367.278 20.3983 366.431 20.839C367.682 21.298 368.639 22.3263 368.639 24.0706C368.639 26.4393 366.855 27.8531 364.151 27.8531H359ZM363.911 25.7415C365.549 25.7415 366.321 25.1172 366.321 23.9237C366.321 22.7486 365.549 22.0876 363.911 22.0876H361.391V25.7415H363.911ZM363.801 20.0311C365.089 20.0311 365.732 19.4802 365.732 18.4887C365.732 17.4972 365.089 16.9463 363.764 16.9463H361.391V20.0311H363.801ZM374.394 28C371.358 28 369.684 25.613 369.684 23.1893C369.684 20.7472 371.193 18.452 374.228 18.452C377.318 18.452 378.716 20.7105 378.716 22.9138C378.716 23.226 378.698 23.5198 378.68 23.7034H371.874C372.057 25.1723 372.977 26.1271 374.394 26.1271C375.552 26.1271 376.325 25.6497 376.546 24.7684H378.753C378.422 26.7331 376.693 28 374.394 28ZM371.929 22.161H376.472C376.38 20.9859 375.571 20.1596 374.228 20.1596C372.977 20.1596 372.186 20.8573 371.929 22.161ZM384.379 27.8531C382.356 27.8531 381.031 26.678 381.031 24.6215V20.4901H379.21V18.5989H381.031V15.8079H383.294V18.5989H385.869V20.4901H383.294V24.5297C383.294 25.4661 383.791 25.9435 384.637 25.9435H385.869V27.8531H384.379ZM389.997 28C388.157 28 386.906 26.8249 386.906 25.209C386.906 23.428 388.286 22.2712 390.456 22.2712H392.02C392.535 22.2712 392.756 22.0876 392.756 21.6836C392.756 20.7839 392.075 20.1596 390.88 20.1596C389.684 20.1596 388.967 20.8941 388.93 21.7203H386.906C387.017 19.8842 388.58 18.452 390.99 18.452C393.344 18.452 395 19.8291 395 21.8856V27.8531H392.756V26.476C392.388 27.3941 391.303 28 389.997 28ZM390.53 26.3291C391.928 26.3291 392.756 25.3376 392.756 23.9605V23.8136H390.751C389.739 23.8136 389.095 24.3093 389.095 25.1172C389.095 25.8517 389.666 26.3291 390.53 26.3291Z" fill="white" fill-opacity="0.25"/>
<defs>
<linearGradient id="paint0_linear_32_187" x1="-1.20752" y1="46.4001" x2="350.985" y2="46.4001" gradientUnits="userSpaceOnUse">
<stop stop-color="white" stop-opacity="0.35"/>
<stop offset="1" stop-color="white" stop-opacity="0.75"/>
</linearGradient>
</defs>
</svg>
