<svg width="83" height="24" viewBox="0 0 83 24" fill="none" xmlns="http://www.w3.org/2000/svg">
<path d="M6.62404 23.136V4.86399H3.61502e-05V0.735985H18.08V4.86399H11.456V23.136H6.62404ZM20.7078 23.136L15.4598 7.00799H19.9398L22.6918 16.96L25.5398 7.00799H29.6038L32.4518 16.96L35.1718 7.00799H39.6518L34.4038 23.136H30.4998L27.5878 13.088L24.6118 23.136H20.7078ZM41.3648 23.136V7.00799H45.8128V23.136H41.3648ZM41.2368 -1.52588e-05H45.9728V4.70399H41.2368V-1.52588e-05ZM49.1385 23.136V7.00799H53.5865V9.24799C54.4825 7.67999 56.2745 6.75199 58.5145 6.75199C62.1305 6.75199 64.4985 9.37599 64.4985 13.088V23.136H60.0185V14.08C60.0185 12.128 58.7705 10.72 56.9145 10.72C54.9625 10.72 53.5865 12.224 53.5865 14.304V23.136H49.1385ZM75.023 23.392C69.519 23.392 66.735 19.104 66.735 15.04C66.735 10.976 69.231 6.75199 74.703 6.75199C80.399 6.75199 82.639 10.976 82.639 14.624C82.639 15.232 82.607 15.712 82.575 16.064H70.991C71.343 18.336 72.751 19.744 75.023 19.744C76.815 19.744 77.999 19.04 78.351 17.664H82.703C82.063 21.152 78.991 23.392 75.023 23.392ZM71.087 13.216H78.223C78.063 11.424 76.847 10.016 74.703 10.016C72.783 10.016 71.535 11.136 71.087 13.216Z" fill="url(#paint0_linear_28_8)"/>
<defs>
<linearGradient id="paint0_linear_28_8" x1="-0.287964" y1="11.136" x2="83.712" y2="11.136" gradientUnits="userSpaceOnUse">
<stop stop-color="white" stop-opacity="0.85"/>
<stop offset="1" stop-color="white" stop-opacity="0.8"/>
</linearGradient>
</defs>
</svg>
